<?xml version="1.0" standalone="no"?>
<!DOCTYPE svg PUBLIC "-//W3C//DTD SVG 20010904//EN"
 "http://www.w3.org/TR/2001/REC-SVG-20010904/DTD/svg10.dtd">
<svg version="1.0" xmlns="http://www.w3.org/2000/svg"
 width="700.000000pt" height="700.000000pt" viewBox="0 0 700.000000 700.000000"
 preserveAspectRatio="xMidYMid meet">

<g transform="translate(0.000000,700.000000) scale(0.100000,-0.100000)"
fill="#000000" stroke="none">
<path d="M3230 6563 c-721 -70 -1370 -375 -1874 -879 -492 -491 -792 -1116
-872 -1814 -22 -199 -15 -598 15 -782 90 -557 308 -1046 652 -1469 508 -622
1230 -1009 2049 -1100 141 -15 494 -12 644 6 979 117 1818 674 2304 1532 182
319 314 717 362 1084 33 254 30 590 -6 834 -21 136 -21 129 12 200 l28 58 -30
25 c-77 64 -83 72 -99 129 -53 190 -159 444 -260 623 -484 864 -1343 1436
-2316 1545 -121 13 -504 19 -609 8z m358 -60 c-49 -2 -127 -2 -175 0 -49 1 -9
3 87 3 96 0 136 -2 88 -3z m-335 -10 c-18 -2 -48 -2 -65 0 -18 2 -4 4 32 4 36
0 50 -2 33 -4z m545 0 c-16 -2 -40 -2 -55 0 -16 2 -3 4 27 4 30 0 43 -2 28 -4z
m-668 -13 c0 -5 -18 -10 -41 -10 -24 0 -38 4 -34 10 3 6 22 10 41 10 19 0 34
-4 34 -10z m805 0 c4 -6 -12 -10 -42 -9 -36 0 -43 3 -28 9 28 12 63 12 70 0z
m-917 -17 c-10 -2 -28 -2 -40 0 -13 2 -5 4 17 4 22 1 32 -1 23 -4z m1087 -14
c5 -5 20 -9 35 -10 14 0 20 -3 13 -5 -10 -5 -46 1 -158 26 -32 7 -26 8 30 4
39 -3 74 -9 80 -15z m-1160 1 c-3 -5 -15 -10 -26 -10 -10 0 -19 5 -19 10 0 6
12 10 26 10 14 0 23 -4 19 -10z m-65 -16 c0 -2 -12 -4 -26 -4 -14 0 -23 4 -20
9 6 8 46 4 46 -5z m-67 -11 c-7 -2 -21 -2 -30 0 -10 3 -4 5 12 5 17 0 24 -2
18 -5z m1461 -13 c6 -6 19 -10 30 -10 10 0 17 -3 14 -6 -8 -8 -131 17 -143 29
-7 6 7 7 40 3 27 -3 54 -11 59 -16z m-1524 0 c0 -5 -7 -10 -15 -10 -8 0 -15 5
-15 10 0 6 7 10 15 10 8 0 15 -4 15 -10z m-87 -29 c-28 -11 -70 -22 -92 -26
-23 -4 -43 -11 -47 -16 -3 -5 -13 -9 -22 -9 -24 0 -2 17 38 28 19 6 53 18 75
26 22 8 54 15 70 15 25 0 22 -3 -22 -18z m1741 -6 c15 -8 35 -15 43 -15 8 0
11 -5 8 -10 -4 -6 -13 -7 -23 -1 -9 4 -34 11 -54 15 -21 4 -40 11 -43 16 -9
15 37 12 69 -5z m90 -34 c3 -5 22 -12 41 -15 19 -4 35 -12 35 -17 0 -6 -6 -8
-12 -5 -7 2 -30 10 -50 17 -21 7 -38 16 -38 21 0 11 17 10 24 -1z m-987 -42
c18 -34 18 -384 0 -419 -16 -32 -70 -40 -98 -14 -18 16 -19 33 -19 223 0 113
4 211 8 218 12 18 55 31 77 23 11 -4 26 -18 32 -31z m-1057 11 c-19 -10 -52
-22 -72 -25 -21 -4 -38 -11 -38 -16 0 -5 -5 -9 -10 -9 -13 0 -254 -119 -330
-163 -53 -30 -259 -166 -270 -177 -3 -3 -30 -24 -60 -48 -30 -23 -79 -63 -109
-89 -30 -27 -61 -55 -71 -63 -9 -8 -31 -28 -48 -44 -18 -17 -32 -25 -32 -19 0
9 189 179 251 226 13 9 47 34 74 55 28 21 77 56 110 77 33 22 62 43 65 47 3 4
30 20 60 35 30 16 74 41 97 55 23 15 53 30 67 34 14 3 26 10 26 15 0 5 5 9 12
9 6 0 36 12 67 26 31 14 72 32 91 41 19 9 44 20 55 26 55 28 116 35 65 7z
m2175 -20 c13 -5 14 -9 5 -9 -8 0 -24 4 -35 9 -13 5 -14 9 -5 9 8 0 24 -4 35
-9z m101 -46 c38 -19 61 -33 51 -30 -11 3 -30 9 -43 12 -13 3 -24 10 -24 14 0
4 -13 10 -30 14 -16 3 -30 10 -30 16 0 14 -2 14 76 -26z m104 -44 c0 -5 6 -10
14 -10 8 0 22 -7 30 -16 9 -8 16 -13 16 -10 0 3 13 -2 29 -12 16 -9 55 -32 88
-51 32 -18 60 -36 63 -40 3 -3 21 -15 41 -26 36 -20 46 -26 128 -87 24 -18 54
-38 66 -45 30 -17 60 -52 51 -60 -4 -4 -10 -2 -14 4 -7 11 -96 82 -142 113
-12 8 -33 23 -45 33 -13 9 -28 17 -34 17 -6 0 -11 4 -11 8 0 5 -15 16 -32 25
-18 10 -49 27 -68 39 -69 42 -155 89 -182 99 -30 12 -38 29 -13 29 8 0 15 -4
15 -10z m-2639 -415 c112 -195 119 -223 62 -254 -44 -23 -64 -1 -166 176 -53
94 -97 180 -97 193 0 37 29 61 69 58 34 -3 37 -8 132 -173z m2710 154 c28 -28
23 -44 -77 -228 -91 -167 -122 -206 -157 -195 -32 9 -59 44 -53 69 7 26 173
334 194 358 21 23 67 22 93 -4z m537 -148 c18 -17 37 -31 43 -31 5 0 9 -7 9
-16 0 -19 -8 -14 -79 55 -50 49 -26 41 27 -8z m193 -179 c52 -53 110 -117 129
-140 19 -24 54 -66 78 -93 23 -27 42 -54 42 -58 0 -5 16 -26 35 -47 19 -22 35
-44 35 -51 0 -6 6 -18 13 -25 6 -7 25 -33 42 -58 16 -25 32 -47 35 -50 3 -3
19 -32 35 -65 17 -32 35 -65 42 -72 6 -7 14 -26 18 -43 4 -16 10 -30 13 -30 9
0 48 -85 56 -120 4 -14 -6 0 -21 30 -16 30 -31 57 -34 60 -4 3 -10 16 -14 30
-9 30 -134 244 -183 315 -20 28 -45 63 -56 80 -12 16 -27 36 -34 43 -7 8 -25
30 -40 50 -57 76 -135 165 -217 248 -74 74 -90 94 -78 94 5 0 52 -44 104 -98z
m-4292 -39 c-29 -32 -56 -60 -59 -63 -31 -30 -190 -240 -277 -365 -30 -44 -52
-69 -48 -55 4 14 13 30 21 36 8 6 14 15 14 20 1 11 64 103 145 211 70 94 233
273 248 273 5 0 -14 -26 -44 -57z m1476 -158 c74 -21 255 -73 295 -85 213 -63
348 -100 367 -100 14 0 193 45 400 101 313 84 377 99 388 88 7 -8 36 -59 65
-114 112 -211 104 -192 92 -233 -11 -37 -32 -117 -57 -222 -8 -30 -30 -118
-50 -195 -20 -77 -42 -165 -49 -195 -18 -72 -77 -294 -79 -297 -4 -3 -169 71
-257 115 -70 34 -76 40 -93 85 -14 39 -15 51 -5 61 27 27 223 269 231 285 9
17 -40 -33 -171 -173 -45 -49 -84 -87 -86 -85 -1 2 -65 172 -141 377 -164 441
-155 430 -221 257 -139 -360 -238 -611 -244 -618 -4 -4 -38 27 -76 71 -38 43
-172 194 -299 336 -126 142 -231 262 -233 266 -2 5 27 74 64 155 60 129 70
146 89 140 11 -3 43 -12 70 -20z m-54 -497 c96 -112 183 -214 195 -228 12 -14
41 -48 65 -75 107 -124 145 -168 152 -180 4 -8 0 -30 -10 -49 -21 -46 -9 -71
61 -125 130 -100 275 -171 348 -171 15 0 28 -2 28 -3 0 -2 16 -83 35 -180 63
-319 115 -501 217 -758 l50 -127 -31 -128 c-357 -1494 -360 -1503 -381 -1529
-17 -20 -27 -12 -35 32 -4 21 -15 63 -26 93 -19 55 -34 119 -135 570 -128 571
-330 1423 -384 1620 -5 19 -44 175 -85 345 -42 171 -88 355 -102 410 -14 55
-31 125 -38 155 -7 30 -36 150 -65 267 -34 135 -50 221 -46 237 3 14 8 26 10
26 2 0 82 -91 177 -202z m-1829 110 c-9 -18 -19 -35 -22 -38 -3 -3 -20 -34
-38 -70 -18 -36 -37 -72 -42 -80 -5 -8 -19 -37 -32 -65 -27 -60 -27 -60 -33
-53 -3 3 1 18 10 34 8 16 15 35 15 42 0 6 5 12 10 12 6 0 10 6 10 14 0 13 23
60 70 141 13 22 30 52 37 68 8 15 18 27 23 27 5 0 1 -15 -8 -32z m289 -179
c181 -100 199 -113 199 -141 0 -23 -43 -68 -66 -68 -21 0 -341 175 -371 203
-30 27 -29 52 3 83 18 19 32 24 48 20 12 -3 97 -47 187 -97z m4700 80 c14 -14
19 -30 17 -52 -3 -30 -15 -39 -183 -140 -119 -71 -188 -106 -204 -105 -13 2
-33 15 -44 30 -35 47 -17 66 180 182 98 58 186 106 196 106 9 0 26 -9 38 -21z
m329 -255 c11 -26 20 -52 20 -58 1 -6 9 -29 20 -51 11 -22 19 -49 19 -60 l0
-20 -12 20 c-6 11 -12 22 -13 25 -6 31 -20 72 -34 105 -22 51 -33 85 -26 85 3
0 14 -21 26 -46z m-5493 6 c-6 -16 -13 -27 -15 -25 -7 7 8 55 17 55 5 0 4 -13
-2 -30z m-17 -44 c0 -2 -7 -17 -15 -32 -8 -16 -15 -37 -15 -46 0 -10 -5 -18
-11 -18 -6 0 -8 6 -5 13 2 6 10 29 17 50 7 20 16 37 21 37 4 0 8 -2 8 -4z
m-46 -117 c-3 -6 -13 -34 -21 -62 -8 -29 -21 -72 -29 -97 l-14 -45 6 50 c3 28
10 52 15 53 5 2 6 8 3 13 -3 6 -1 15 4 22 5 7 13 27 17 45 3 17 11 32 16 32 6
0 7 -5 3 -11z m5641 -84 l7 -30 -16 29 c-18 31 -22 56 -7 41 5 -6 13 -23 16
-40z m-5710 -134 c3 -5 1 -12 -5 -16 -5 -3 -10 1 -10 9 0 18 6 21 15 7z m-18
-78 c-3 -10 -5 -4 -5 12 0 17 2 24 5 18 2 -7 2 -21 0 -30z m-10 -55 c-3 -8 -6
-5 -6 6 -1 11 2 17 5 13 3 -3 4 -12 1 -19z m-20 -65 c-3 -10 -5 -4 -5 12 0 17
2 24 5 18 2 -7 2 -21 0 -30z m3326 -106 c32 -56 84 -139 117 -184 l59 -83 -25
-97 c-14 -54 -31 -123 -38 -153 -7 -30 -19 -75 -26 -100 l-13 -45 -19 55 c-23
68 -120 429 -142 530 -13 59 -15 131 -6 178 0 1 8 2 18 2 11 0 36 -35 75 -103z
m1016 24 c24 -72 23 -91 -9 -91 -14 0 -24 18 -43 74 -26 79 -26 80 18 85 6 0
21 -30 34 -68z m-4352 2 c-3 -10 -5 -2 -5 17 0 19 2 27 5 18 2 -10 2 -26 0
-35z m4247 -23 c20 -76 17 -100 -12 -100 -16 0 -22 12 -31 58 -6 31 -14 67
-17 79 -6 20 -1 24 37 32 3 0 13 -30 23 -69z m1625 -7 c-1 -34 -2 -35 -9 -13
-11 36 -11 50 0 50 6 0 10 -17 9 -37z m8 -120 c-2 -16 -4 -5 -4 22 0 28 2 40
4 28 2 -13 2 -35 0 -50z m-5910 -75 c-2 -13 -4 -3 -4 22 0 25 2 35 4 23 2 -13
2 -33 0 -45z m5920 -80 c-2 -18 -4 -4 -4 32 0 36 2 50 4 33 2 -18 2 -48 0 -65z
m-1197 -39 c0 -5 -24 -9 -52 -8 l-53 1 40 18 c38 18 65 13 65 -11z m-4733
-216 c-1 -43 -3 -8 -3 77 0 85 2 120 3 78 2 -43 2 -113 0 -155z m533 77 c20
-20 26 -56 12 -76 -19 -29 -56 -34 -239 -34 -217 0 -236 5 -241 62 -5 63 11
68 245 68 190 0 204 -1 223 -20z m5240 0 c28 -28 25 -64 -7 -90 -26 -20 -36
-21 -236 -18 -193 3 -210 4 -223 22 -21 30 -17 72 8 90 19 13 58 16 230 16
195 0 209 -1 228 -20z m161 -218 c1 -28 0 -55 -4 -59 -4 -3 -7 22 -7 57 0 75
8 77 11 2z m-5924 -94 c-3 -8 -6 -5 -6 6 -1 11 2 17 5 13 3 -3 4 -12 1 -19z
m5910 -80 c-2 -13 -4 -3 -4 22 0 25 2 35 4 23 2 -13 2 -33 0 -45z m-11 -106
c-13 -12 -17 8 -10 40 l9 33 3 -33 c2 -19 1 -36 -2 -40z m-5869 -19 c-3 -10
-5 -4 -5 12 0 17 2 24 5 18 2 -7 2 -21 0 -30z m5848 -68 c-3 -31 -9 -55 -11
-52 -3 2 -2 30 2 61 4 31 9 54 12 52 2 -3 1 -30 -3 -61z m-28 -117 c-3 -7 -5
-2 -5 12 0 14 2 19 5 13 2 -7 2 -19 0 -25z m-10 -55 c-3 -10 -5 -4 -5 12 0 17
2 24 5 18 2 -7 2 -21 0 -30z m-5740 -65 c-3 -8 -6 -5 -6 6 -1 11 2 17 5 13 3
-3 4 -12 1 -19z m5707 -52 c-3 -21 -8 -35 -11 -32 -2 2 -1 20 3 40 3 21 8 35
11 32 2 -2 1 -20 -3 -40z m-67 -188 c-3 -8 -6 -5 -6 6 -1 11 2 17 5 13 3 -3 4
-12 1 -19z m-4885 -135 c23 -21 23 -65 -1 -87 -26 -24 -352 -216 -367 -216 -6
0 -23 9 -38 21 -28 22 -34 55 -13 82 19 27 349 217 376 217 14 0 33 -7 43 -17z
m4353 -84 c185 -105 195 -113 195 -148 0 -32 -8 -44 -37 -60 -28 -14 -35 -12
-233 102 -155 89 -165 97 -168 127 -4 39 21 70 57 70 14 0 98 -41 186 -91z
m-1033 -796 c28 -32 208 -357 208 -375 0 -46 -81 -77 -110 -43 -19 23 -196
338 -205 364 -16 51 71 95 107 54z m-2424 -9 c13 -9 22 -26 22 -41 0 -26 -170
-314 -213 -360 -39 -43 -107 -19 -107 37 0 26 169 310 213 358 24 26 54 28 85
6z m1208 -318 c18 -13 19 -28 19 -231 0 -203 -1 -218 -19 -231 -26 -19 -65
-18 -88 3 -16 15 -18 35 -18 226 0 182 2 213 17 229 19 22 62 23 89 4z"/>
</g>
</svg>
